nColumns=28
nRows=40
DataType=double
version=3
OpenSimVersion=4.1
endheader
time	ground_force_1_vx	ground_force_1_vy	ground_force_1_vz	ground_force_1_px	ground_force_1_py	ground_force_1_pz	ground_force_1_mx	ground_force_1_my	ground_force_1_mz	ground_force_2_vx	ground_force_2_vy	ground_force_2_vz	ground_force_2_px	ground_force_2_py	ground_force_2_pz	ground_force_2_mx	ground_force_2_my	ground_force_2_mz	ground_force_3_vx	ground_force_3_vy	ground_force_3_vz	ground_force_3_px	ground_force_3_py	ground_force_3_pz	ground_force_3_mx	ground_force_3_my	ground_force_3_mz
1.05	-118.737	286.248	-24.3197	-0.17315	0.006	-0.337171	0	0.86015	0	-98.1167	216.41	13.0183	-0.075386	0.006	-0.849202	0	0.057931	0	0	0	0	0	0	0	0	0	0
1.06	-175.215	1323.94	-142.552	-0.226326	0.006	-0.344683	0	-1.74562	0	-229.175	440.433	71.7888	-0.083362	0.006	-0.849963	0	0.081498	0	0	0	0	0	0	0	0	0	0
1.07	-36.1556	1811.77	-171.377	-0.239074	0.006	-0.348236	0	-5.59982	0	-165.285	654.596	115.82	-0.122719	0.006	-0.840329	0	1.32352	0	0	0	0	0	0	0	0	0	0
1.08	-160.512	1042.1	-119.849	-0.218621	0.006	-0.346834	0	-4.67061	0	-46.2329	1155.97	132.684	-0.174741	0.006	-0.828292	0	5.24143	0	0	0	0	0	0	0	0	0	0
1.09	-263.842	452.25	-101.717	-0.155306	0.006	-0.337162	0	-2.29281	0	-69.1267	1265.53	131.923	-0.184271	0.006	-0.824773	0	5.68105	0	0	0	0	0	0	0	0	0	0
1.1	-271.485	335.917	-101.971	-0.117279	0.006	-0.329694	0	-0.82296	0	-249.778	865.634	97.3264	-0.157782	0.006	-0.823941	0	3.93356	0	0	0	0	0	0	0	0	0	0
1.11	-245.611	374.573	-94.6436	-0.124048	0.006	-0.331631	0	-1.54595	0	-286.318	633.29	72.8245	-0.131689	0.006	-0.823775	0	3.2849	0	0	0	0	0	0	0	0	0	0
1.12	-210.297	427.406	-84.3442	-0.130347	0.006	-0.333844	0	-2.77764	0	-207.386	588.63	76.3235	-0.130579	0.006	-0.824183	0	3.34662	0	0	0	0	0	0	0	0	0	0
1.13	-161.143	490.906	-80.9188	-0.140453	0.006	-0.335615	0	-3.57059	0	-168.114	616.44	81.7124	-0.133301	0.006	-0.82429	0	3.91336	0	0	0	0	0	0	0	0	0	0
1.14	-104.062	563.95	-83.6895	-0.153411	0.006	-0.337336	0	-3.77656	0	-173.411	627.002	80.0288	-0.12984	0.006	-0.824168	0	4.60591	0	0	0	0	0	0	0	0	0	0
1.15	-65.2528	607.455	-82.1718	-0.161158	0.006	-0.338943	0	-4.08419	0	-164.218	621.427	83.0181	-0.127206	0.006	-0.824562	0	4.78397	0	0	0	0	0	0	0	0	0	0
1.16	-55.6062	583.228	-74.2969	-0.159138	0.006	-0.339638	0	-4.11904	0	-136.388	611.064	87.86	-0.127539	0.006	-0.825056	0	4.31776	0	0	0	0	0	0	0	0	0	0
1.17	-60.5455	514.807	-65.4617	-0.149578	0.006	-0.339626	0	-3.60757	0	-110.791	611.81	88.6042	-0.130311	0.006	-0.824996	0	4.03217	0	0	0	0	0	0	0	0	0	0
1.18	-68.9437	452.893	-57.713	-0.138674	0.006	-0.340065	0	-3.17491	0	-90.1333	641.734	87.9595	-0.134817	0.006	-0.82467	0	4.33655	0	0	0	0	0	0	0	0	0	0
1.19	-76.268	417.827	-52.6344	-0.13065	0.006	-0.341175	0	-2.90913	0	-80.7458	674.422	96.1477	-0.135166	0.006	-0.825559	0	4.24095	0	0	0	0	0	0	0	0	0	0
1.2	-78.1987	406.258	-50.9727	-0.126634	0.006	-0.342309	0	-2.6569	0	-89.465	672.139	101.324	-0.12899	0.006	-0.826743	0	4.00195	0	0	0	0	0	0	0	0	0	0
1.21	-76.513	412.819	-52.6797	-0.126119	0.006	-0.343289	0	-2.54283	0	-97.9223	647.65	95.9016	-0.121096	0.006	-0.827345	0	4.35194	0	0	0	0	0	0	0	0	0	0
1.22	-71.3262	441.242	-56.7878	-0.129986	0.006	-0.344224	0	-2.75745	0	-97.8815	625.101	89.1139	-0.115256	0.006	-0.827617	0	4.86899	0	0	0	0	0	0	0	0	0	0
1.23	-54.585	489.819	-62.0295	-0.138506	0.006	-0.345359	0	-3.13912	0	-95.2151	611.893	88.3693	-0.111206	0.006	-0.828083	0	4.9322	0	0	0	0	0	0	0	0	0	0
1.24	-27.4828	541.7	-68.9767	-0.14818	0.006	-0.346341	0	-3.28785	0	-91.2145	607.082	91.7561	-0.108474	0.006	-0.828799	0	4.75811	0	0	0	0	0	0	0	0	0	0
1.25	-10.646	566.539	-77.5257	-0.152407	0.006	-0.346326	0	-2.99147	0	-85.8276	608.823	94.6947	-0.107268	0.006	-0.829265	0	4.93066	0	0	0	0	0	0	0	0	0	0
1.26	-13.7035	562.552	-80.8201	-0.150483	0.006	-0.345898	0	-2.96508	0	-78.7896	614.033	95.465	-0.107446	0.006	-0.829336	0	5.60986	0	0	0	0	0	0	0	0	0	0
1.27	-24.4155	550.347	-78.3344	-0.146256	0.006	-0.34568	0	-3.38864	0	-69.7747	618.094	95.2894	-0.108094	0.006	-0.829157	0	6.37995	0	0	0	0	0	0	0	0	0	0
1.28	-30.0847	541.405	-76.2293	-0.1428	0.006	-0.345638	0	-3.65589	0	-61.0622	621.206	96.6942	-0.108798	0.006	-0.829158	0	6.8084	0	0	0	0	0	0	0	0	0	0
1.29	-29.2593	536.118	-76.9046	-0.14065	0.006	-0.34539	0	-3.6328	0	-56.2398	624.52	100.54	-0.109607	0.006	-0.829439	0	6.87472	0	0	0	0	0	0	0	0	0	0
1.3	-26.314	535.527	-78.8525	-0.139444	0.006	-0.345354	0	-3.62539	0	-52.9708	626.329	103.912	-0.110312	0.006	-0.829715	0	6.78312	0	0	0	0	0	0	0	0	0	0
1.31	-23.5263	540.401	-80.0653	-0.138714	0.006	-0.345418	0	-3.76819	0	-47.5014	626.824	105.907	-0.110338	0.006	-0.83007	0	6.65284	0	0	0	0	0	0	0	0	0	0
1.32	-19.7979	546.92	-80.2811	-0.137665	0.006	-0.345476	0	-3.86902	0	-42.9253	629.136	107.677	-0.109217	0.006	-0.830292	0	6.44695	0	0	0	0	0	0	0	0	0	0
1.33	-16.5316	548.938	-81.466	-0.135368	0.006	-0.345237	0	-3.63651	0	-41.4301	629.081	108.607	-0.107106	0.006	-0.830577	0	6.24487	0	0	0	0	0	0	0	0	0	0
1.34	-14.6278	546.323	-83.9636	-0.132184	0.006	-0.344693	0	-3.21562	0	-41.001	622.482	108.882	-0.104519	0.006	-0.830835	0	5.98095	0	0	0	0	0	0	0	0	0	0
1.35	-13.5437	543.903	-85.9945	-0.129086	0.006	-0.344334	0	-2.93127	0	-42.1104	612.358	108.38	-0.101883	0.006	-0.830892	0	5.65846	0	0	0	0	0	0	0	0	0	0
1.36	-13.6082	543	-87.0996	-0.126138	0.006	-0.344159	0	-2.8086	0	-42.9737	603.562	107.023	-0.099508	0.006	-0.830854	0	5.42401	0	0	0	0	0	0	0	0	0	0
1.37	-14.3703	540.902	-88.0734	-0.123032	0.006	-0.343807	0	-2.68645	0	-42.2995	598.358	106.323	-0.097379	0.006	-0.830718	0	5.19491	0	0	0	0	0	0	0	0	0	0
1.38	-16.2481	536.682	-89.5748	-0.119923	0.006	-0.343451	0	-2.48189	0	-40.952	594.81	106.975	-0.095528	0.006	-0.830528	0	4.86854	0	0	0	0	0	0	0	0	0	0
1.39	-17.6215	531.656	-91.4662	-0.117385	0.006	-0.342963	0	-2.14254	0	-38.2551	589.777	107.782	-0.093686	0.006	-0.830421	0	4.52808	0	0	0	0	0	0	0	0	0	0
1.4	-17.2984	527.236	-93.451	-0.115596	0.006	-0.342315	0	-1.72526	0	-35.7941	584.126	108.162	-0.092029	0.006	-0.830477	0	4.25254	0	0	0	0	0	0	0	0	0	0
1.41	-16.9838	524.328	-95.8489	-0.114091	0.006	-0.341793	0	-1.24722	0	-34.9871	579.701	108.239	-0.090438	0.006	-0.830614	0	4.04523	0	0	0	0	0	0	0	0	0	0
1.42	-17.714	522.296	-98.4807	-0.112621	0.006	-0.34112	0	-0.819886	0	-34.5519	576.781	107.983	-0.088984	0.006	-0.830693	0	3.93126	0	0	0	0	0	0	0	0	0	0
1.43	-18.3108	520.721	-100.657	-0.111388	0.006	-0.340154	0	-0.539969	0	-33.6739	575.269	107.337	-0.087772	0.006	-0.830777	0	3.90316	0	0	0	0	0	0	0	0	0	0
1.44	-19.4662	520.128	-102.172	-0.110261	0.006	-0.339376	0	-0.377081	0	-32.9254	574.014	106.647	-0.08673	0.006	-0.830933	0	3.86256	0	0	0	0	0	0	0	0	0	0
